Coordinates
version=1
nRows=15
nColumns=46
inDegrees=yes

Units are S.I. units (second, meters, Newtons, ...)
Angles are in degrees.

endheader
time	pelvis_tilt	pelvis_list	pelvis_rotation	pelvis_tx	pelvis_ty	pelvis_tz	bb_angle	bb_tx	bb_ty	bb_tz	hip_flexion_r	hip_adduction_r	hip_rotation_r	knee_angle_r	knee_angle_r_beta	ankle_angle_r	subtalar_angle_r	mtp_angle_r	crank_angle_r	hip_flexion_l	hip_adduction_l	hip_rotation_l	knee_angle_l	knee_angle_l_beta	ankle_angle_l	subtalar_angle_l	mtp_angle_l	crank_angle_l	lumbar_extension	lumbar_bending	lumbar_rotation	arm_flex_r	arm_add_r	arm_rot_r	elbow_flex_r	pro_sup_r	wrist_flex_r	wrist_dev_r	arm_flex_l	arm_add_l	arm_rot_l	elbow_flex_l	pro_sup_l	wrist_flex_l	wrist_dev_l
      7.50500000	    -12.24257476	     -5.76041052	      8.65879034	      0.16309671	      1.09169426	     -0.25743313	      0.00000000	      0.50000000	      0.00000000	      0.25000000	     81.58269538	     -6.00029258	     -0.25503264	    115.96315399	      2.02393885	    -22.85652535	    -18.30076496	      0.00000000	      0.00000000	     45.13016362	     -1.50289039	      6.62591931	     36.47609262	      0.63662791	    -12.52441943	    -19.38901617	      0.00000000	      0.00000000	    -69.57902503	      6.05992924	      1.11181801	     76.56986683	    -22.32064817	     26.50672388	     69.30041293	     50.14226007	      0.00000000	      0.00000000	     81.09640536	    -13.80356257	     28.19673669	     70.21413187	     47.53445297	      0.00000000	      0.00000000
      7.51000000	    -12.30600157	     -5.89102816	      8.70759223	      0.16299697	      1.09155556	     -0.25762513	      0.00000000	      0.50000000	      0.00000000	      0.25000000	     82.98749109	     -6.26305431	     -0.28915611	    117.02834671	      2.04252997	    -21.50315798	    -18.85561508	      0.00000000	      0.00000000	     44.09026056	     -1.95863290	      6.34956407	     35.55051577	      0.62047355	    -12.56042884	    -18.28736129	      0.00000000	      0.00000000	    -69.45187734	      6.34967465	      1.19903260	     76.75671002	    -22.37041345	     26.70418068	     69.24945084	     50.16020057	      0.00000000	      0.00000000	     80.92487184	    -13.95555559	     28.16302698	     70.13599523	     47.52585450	      0.00000000	      0.00000000
      7.51500000	    -12.22962001	     -5.81333558	      8.64568319	      0.16300112	      1.09173840	     -0.25757237	      0.00000000	      0.50000000	      0.00000000	      0.25000000	     84.20253195	     -6.40749561	     -0.07692054	    117.98636640	      2.05925057	    -19.98184454	    -18.47380734	      0.00000000	      0.00000000	     42.93850024	     -2.42556707	      5.67175036	     34.87759466	      0.60872886	    -11.73157880	    -16.00774495	      0.00000000	      0.00000000	    -69.43486775	      6.47734211	      1.01129390	     77.09541163	    -22.40110339	     27.70646012	     68.96536417	     50.24422461	      0.00000000	      0.00000000	     80.79388343	    -14.25930653	     27.96789030	     70.09194589	     47.52345107	      0.00000000	      0.00000000
      7.52000000	    -12.32287892	     -5.84182832	      8.66868747	      0.16276728	      1.09183863	     -0.25778853	      0.00000000	      0.50000000	      0.00000000	      0.25000000	     85.52376495	     -6.64334545	     -0.03927870	    118.72846624	      2.07220265	    -18.95772815	    -19.01947901	      0.00000000	      0.00000000	     42.02863941	     -2.76280192	      5.37873415	     34.20784712	      0.59703956	    -11.76749253	    -15.02145440	      0.00000000	      0.00000000	    -69.29280896	      6.72142219	      1.03910156	     77.32297770	    -22.44643816	     27.90370634	     68.91807731	     50.26140702	      0.00000000	      0.00000000	     80.64494333	    -14.37190320	     27.93358514	     70.02810529	     47.51725875	      0.00000000	      0.00000000
      7.52500000	    -12.29870777	     -5.72339831	      8.59424357	      0.16262087	      1.09224633	     -0.25790261	      0.00000000	      0.50000000	      0.00000000	      0.25000000	     86.65771079	     -6.79707071	      0.19586075	    119.31776139	      2.08248779	    -17.81564552	    -18.87852162	      0.00000000	      0.00000000	     41.06745664	     -3.14008926	      4.68992850	     33.81319313	      0.59015155	    -11.07927502	    -13.00898003	      0.00000000	      0.00000000	    -69.26848428	      6.84389607	      0.86774315	     77.65978557	    -22.46098642	     28.78247632	     68.68050263	     50.33144517	      0.00000000	      0.00000000	     80.52498549	    -14.62503596	     27.72016642	     69.97202029	     47.50823010	      0.00000000	      0.00000000
      7.53000000	    -12.40749267	     -5.70382011	      8.60664065	      0.16225840	      1.09270900	     -0.25828760	      0.00000000	      0.50000000	      0.00000000	      0.25000000	     87.83553699	     -7.03832459	      0.27580155	    119.71448387	      2.08941191	    -16.86768301	    -19.30703458	      0.00000000	      0.00000000	     40.33010392	     -3.41045779	      4.33313641	     33.46016195	      0.58398999	    -11.11260873	    -12.21387607	      0.00000000	      0.00000000	    -69.19552577	      7.10468646	      0.92519154	     77.99252588	    -22.48859659	     28.92359040	     68.65601456	     50.34278901	      0.00000000	      0.00000000	     80.44722132	    -14.74103330	     27.67604875	     69.91265147	     47.50018249	      0.00000000	      0.00000000
      7.53500000	    -12.38181688	     -5.59708497	      8.50891000	      0.16198273	      1.09336820	     -0.25848947	      0.00000000	      0.50000000	      0.00000000	      0.25000000	     88.81123334	     -7.13090636	      0.51207389	    119.96924298	      2.09385829	    -15.83285727	    -19.01384062	      0.00000000	      0.00000000	     39.57824443	     -3.77673618	      3.65741211	     33.46727208	      0.58411409	    -10.34166190	    -10.30428199	      0.00000000	      0.00000000	    -69.22721193	      7.22826866	      0.76597637	     78.46972326	    -22.46397133	     29.89462871	     68.35457727	     50.40719350	      0.00000000	      0.00000000	     80.35230611	    -15.01050432	     27.42697430	     69.84840219	     47.48777345	      0.00000000	      0.00000000
      7.54000000	    -12.49080463	     -5.51012039	      8.54193110	      0.16149172	      1.09414039	     -0.25916831	      0.00000000	      0.50000000	      0.00000000	      0.25000000	     89.80961822	     -7.39778264	      0.67935778	    119.97267078	      2.09391812	    -15.13121226	    -19.30810355	      0.00000000	      0.00000000	     39.01608293	     -3.89646788	      3.37434111	     33.46784064	      0.58412401	    -10.36226975	     -9.79041860	      0.00000000	      0.00000000	    -69.19044715	      7.55584306	      0.80898662	     78.86558079	    -22.45625786	     29.99688971	     68.34553130	     50.41462921	      0.00000000	      0.00000000	     80.30228198	    -15.10322428	     27.36298751	     69.79600167	     47.47802495	      0.00000000	      0.00000000
      7.54500000	    -12.50873984	     -5.49520135	      8.42900705	      0.16116467	      1.09503513	     -0.25936998	      0.00000000	      0.50000000	      0.00000000	      0.25000000	     90.58302341	     -7.35624543	      0.80775283	    119.85700222	      2.09189932	    -14.13497101	    -18.97476566	      0.00000000	      0.00000000	     38.55694989	     -4.29245708	      2.85700278	     33.89106534	      0.59151068	     -9.67064029	     -8.25035733	      0.00000000	      0.00000000	    -69.24146343	      7.75028930	      0.74449880	     79.48912170	    -22.30498149	     31.01137364	     67.91981499	     50.45849440	      0.00000000	      0.00000000	     80.19340944	    -15.40790848	     27.01601762	     69.76810123	     47.46365899	      0.00000000	      0.00000000
      7.55000000	    -12.58904281	     -5.40890678	      8.36439600	      0.16062630	      1.09611519	     -0.25983178	      0.00000000	      0.50000000	      0.00000000	      0.25000000	     91.31898051	     -7.41664457	      0.98584227	    119.49587528	      2.08559647	    -13.53264856	    -19.13360191	      0.00000000	      0.00000000	     38.18255608	     -4.43206015	      2.63328726	     34.30731290	      0.59877557	     -9.61795132	     -7.98864036	      0.00000000	      0.00000000	    -69.30812316	      7.93113968	      0.78970412	     79.93666136	    -22.24240129	     31.13635097	     67.88703816	     50.46356903	      0.00000000	      0.00000000	     80.22910025	    -15.49136719	     26.92446345	     69.74459945	     47.45590244	      0.00000000	      0.00000000
      7.55500000	    -12.71700913	     -5.55278865	      8.12641081	      0.16005385	      1.09709332	     -0.25988315	      0.00000000	      0.50000000	      0.00000000	      0.25000000	     91.93811005	     -7.22623674	      0.96300828	    118.91494724	      2.07545736	    -12.65123501	    -18.70780079	      0.00000000	      0.00000000	     38.13162088	     -4.92813830	      2.36128669	     35.18863399	      0.61415752	     -9.06621153	     -7.13522338	      0.00000000	      0.00000000	    -69.30652239	      8.10969074	      0.97014964	     80.53018932	    -22.01899876	     31.81627124	     67.58441291	     50.48572492	      0.00000000	      0.00000000	     80.22012008	    -15.76691134	     26.62980970	     69.70692119	     47.43691599	      0.00000000	      0.00000000
      7.56000000	    -12.77200625	     -5.36448681	      8.03618863	      0.15961719	      1.09876094	     -0.26048113	      0.00000000	      0.50000000	      0.00000000	      0.25000000	     92.29928938	     -7.28050481	      1.23912625	    118.11802917	      2.06154852	    -12.32857446	    -18.81106440	      0.00000000	      0.00000000	     37.74507872	     -4.85889148	      2.42919423	     35.64073051	      0.62204810	     -9.10538989	     -7.09449931	      0.00000000	      0.00000000	    -69.41401370	      8.19517897	      1.02189046	     80.60555402	    -21.98965542	     31.83995349	     67.57532279	     50.48605507	      0.00000000	      0.00000000	     80.20700655	    -15.78108103	     26.61853714	     69.69807813	     47.43536755	      0.00000000	      0.00000000
      7.56500000	    -12.89752343	     -5.68968892	      7.75147484	      0.15888551	      1.09959320	     -0.26029937	      0.00000000	      0.50000000	      0.00000000	      0.25000000	     92.55738970	     -6.82746496	      1.10697515	    117.27017802	      2.04675072	    -10.66278542	    -18.02607033	      0.00000000	      0.00000000	     38.16835709	     -5.52450199	      2.27038084	     37.28477502	      0.65074208	     -8.56834489	     -6.61210374	      0.00000000	      0.00000000	    -69.48092336	      8.47512403	      1.40213801	     81.67359472	    -21.68778802	     32.66114813	     67.14863116	     50.49639178	      0.00000000	      0.00000000	     80.16837426	    -16.07355304	     26.25353251	     69.72040719	     47.42433595	      0.00000000	      0.00000000
      7.57000000	    -12.94868787	     -5.85198065	      7.49987705	      0.15830871	      1.10102149	     -0.26036944	      0.00000000	      0.50000000	      0.00000000	      0.25000000	     92.55153326	     -6.49991997	      1.05762144	    116.20490234	      2.02815815	     -9.48799532	    -17.56823129	      0.00000000	      0.00000000	     38.35987099	     -5.87487111	      2.42101964	     38.67342572	      0.67497861	     -8.33316344	     -6.70782906	      0.00000000	      0.00000000	    -69.64199999	      8.64387863	      1.65257286	     82.36433497	    -21.45241472	     33.28992502	     66.76609718	     50.49718525	      0.00000000	      0.00000000	     80.18400286	    -16.31848364	     25.94378401	     69.81443115	     47.43146064	      0.00000000	      0.00000000
      7.57500000	    -12.92766905	     -6.02052523	      7.03164708	      0.15776195	      1.10276478	     -0.26001609	      0.00000000	      0.50000000	      0.00000000	      0.25000000	     92.28847834	     -5.85798371	      0.94584521	    114.94012314	      2.00608359	     -8.30903358	    -17.26208567	      0.00000000	      0.00000000	     38.51772224	     -6.34705209	      2.53109919	     40.16823411	      0.70106794	     -8.21800941	     -6.99101217	      0.00000000	      0.00000000	    -69.95202136	      8.58793027	      2.08352828	     82.91495452	    -21.19868927	     33.52437299	     66.64684174	     50.49665556	      0.00000000	      0.00000000	     80.31397433	    -16.52760096	     25.75077302	     69.82359437	     47.42502288	      0.00000000	      0.00000000
